<svg xmlns="http://www.w3.org/2000/svg" viewBox="0 0 48 48" width="50px" height="50px"><path fill="#37474F" d="M23 5H25V41H23z"/><path fill="#37474F" d="M20.5 31.4H22.5V45.599999999999994H20.5z" transform="rotate(45.001 21.495 38.505)"/><path fill="#37474F" d="M25.5 31.4H27.5V45.599999999999994H25.5z" transform="rotate(134.999 26.51 38.51)"/><path fill="#CFD8DC" d="M4 8H44V36H4z"/><g><path fill="#607D8B" d="M3 7H45V11H3zM3 35H45V37H3zM31.5 42A1.5 1.5 0 1 0 31.5 45 1.5 1.5 0 1 0 31.5 42zM16.5 42A1.5 1.5 0 1 0 16.5 45 1.5 1.5 0 1 0 16.5 42z"/></g><g><path fill="#C51162" d="M31.9 18.9L26 24.9 20 18.9 11.9 26.9 14.1 29.1 20 23.1 26 29.1 34.1 21.1z"/><path fill="#C51162" d="M36 24L29 17 36 17z"/></g></svg>